# xmcd CD database file
#
# Track frame offsets:
#	150
#	19067
#	45458
#	65315
#	85857
#	105458
#	130336
#	155843
#	180579
#
# Disc length: 2822 seconds
#
# Revision: 2
# Processed by: cddbd v1.5.2PL0 Copyright (c) Steve Scherf et al.
# Submitted via: CDex 1.70beta2
#
DISCID=6c0b0409
DTITLE=西司 - RE-INTRO
DYEAR=1999
DGENRE=JPop
TTITLE0=恋の道先
TTITLE1=君のそばでララバイ
TTITLE2=I wish I couid
TTITLE3=夢の扉
TTITLE4=Tomorrow
TTITLE5=満月のシーツ
TTITLE6=めぐり逢えた奇跡
TTITLE7=君を見てる僕が見える
TTITLE8=二人のために
EXTD=YEAR: 1999
EXTT0=
EXTT1=
EXTT2=
EXTT3=
EXTT4=
EXTT5=
EXTT6=
EXTT7=
EXTT8=
PLAYORDER=
